<?xml version="1.0" standalone="no"?>
<!DOCTYPE svg PUBLIC "-//W3C//DTD SVG 1.1//EN" "http://www.w3.org/Graphics/SVG/1.1/DTD/svg11.dtd">
<svg width="99" height="99" version="1.1" xmlns="http://www.w3.org/2000/svg">
	<g id="elements" fill="black" stroke="none">
		<rect x="0" y="0" width="3" height="3" />
		<rect x="3" y="0" width="3" height="3" />
		<rect x="6" y="0" width="3" height="3" />
		<rect x="9" y="0" width="3" height="3" />
		<rect x="12" y="0" width="3" height="3" />
		<rect x="15" y="0" width="3" height="3" />
		<rect x="18" y="0" width="3" height="3" />
		<rect x="24" y="0" width="3" height="3" />
		<rect x="33" y="0" width="3" height="3" />
		<rect x="36" y="0" width="3" height="3" />
		<rect x="45" y="0" width="3" height="3" />
		<rect x="48" y="0" width="3" height="3" />
		<rect x="54" y="0" width="3" height="3" />
		<rect x="57" y="0" width="3" height="3" />
		<rect x="63" y="0" width="3" height="3" />
		<rect x="66" y="0" width="3" height="3" />
		<rect x="78" y="0" width="3" height="3" />
		<rect x="81" y="0" width="3" height="3" />
		<rect x="84" y="0" width="3" height="3" />
		<rect x="87" y="0" width="3" height="3" />
		<rect x="90" y="0" width="3" height="3" />
		<rect x="93" y="0" width="3" height="3" />
		<rect x="96" y="0" width="3" height="3" />
		<rect x="0" y="3" width="3" height="3" />
		<rect x="18" y="3" width="3" height="3" />
		<rect x="27" y="3" width="3" height="3" />
		<rect x="30" y="3" width="3" height="3" />
		<rect x="48" y="3" width="3" height="3" />
		<rect x="51" y="3" width="3" height="3" />
		<rect x="54" y="3" width="3" height="3" />
		<rect x="57" y="3" width="3" height="3" />
		<rect x="60" y="3" width="3" height="3" />
		<rect x="66" y="3" width="3" height="3" />
		<rect x="72" y="3" width="3" height="3" />
		<rect x="78" y="3" width="3" height="3" />
		<rect x="96" y="3" width="3" height="3" />
		<rect x="0" y="6" width="3" height="3" />
		<rect x="6" y="6" width="3" height="3" />
		<rect x="9" y="6" width="3" height="3" />
		<rect x="12" y="6" width="3" height="3" />
		<rect x="18" y="6" width="3" height="3" />
		<rect x="30" y="6" width="3" height="3" />
		<rect x="36" y="6" width="3" height="3" />
		<rect x="45" y="6" width="3" height="3" />
		<rect x="48" y="6" width="3" height="3" />
		<rect x="63" y="6" width="3" height="3" />
		<rect x="69" y="6" width="3" height="3" />
		<rect x="78" y="6" width="3" height="3" />
		<rect x="84" y="6" width="3" height="3" />
		<rect x="87" y="6" width="3" height="3" />
		<rect x="90" y="6" width="3" height="3" />
		<rect x="96" y="6" width="3" height="3" />
		<rect x="0" y="9" width="3" height="3" />
		<rect x="6" y="9" width="3" height="3" />
		<rect x="9" y="9" width="3" height="3" />
		<rect x="12" y="9" width="3" height="3" />
		<rect x="18" y="9" width="3" height="3" />
		<rect x="36" y="9" width="3" height="3" />
		<rect x="48" y="9" width="3" height="3" />
		<rect x="63" y="9" width="3" height="3" />
		<rect x="69" y="9" width="3" height="3" />
		<rect x="72" y="9" width="3" height="3" />
		<rect x="78" y="9" width="3" height="3" />
		<rect x="84" y="9" width="3" height="3" />
		<rect x="87" y="9" width="3" height="3" />
		<rect x="90" y="9" width="3" height="3" />
		<rect x="96" y="9" width="3" height="3" />
		<rect x="0" y="12" width="3" height="3" />
		<rect x="6" y="12" width="3" height="3" />
		<rect x="9" y="12" width="3" height="3" />
		<rect x="12" y="12" width="3" height="3" />
		<rect x="18" y="12" width="3" height="3" />
		<rect x="27" y="12" width="3" height="3" />
		<rect x="33" y="12" width="3" height="3" />
		<rect x="42" y="12" width="3" height="3" />
		<rect x="45" y="12" width="3" height="3" />
		<rect x="48" y="12" width="3" height="3" />
		<rect x="51" y="12" width="3" height="3" />
		<rect x="54" y="12" width="3" height="3" />
		<rect x="57" y="12" width="3" height="3" />
		<rect x="63" y="12" width="3" height="3" />
		<rect x="66" y="12" width="3" height="3" />
		<rect x="78" y="12" width="3" height="3" />
		<rect x="84" y="12" width="3" height="3" />
		<rect x="87" y="12" width="3" height="3" />
		<rect x="90" y="12" width="3" height="3" />
		<rect x="96" y="12" width="3" height="3" />
		<rect x="0" y="15" width="3" height="3" />
		<rect x="18" y="15" width="3" height="3" />
		<rect x="30" y="15" width="3" height="3" />
		<rect x="36" y="15" width="3" height="3" />
		<rect x="45" y="15" width="3" height="3" />
		<rect x="48" y="15" width="3" height="3" />
		<rect x="63" y="15" width="3" height="3" />
		<rect x="66" y="15" width="3" height="3" />
		<rect x="69" y="15" width="3" height="3" />
		<rect x="78" y="15" width="3" height="3" />
		<rect x="96" y="15" width="3" height="3" />
		<rect x="0" y="18" width="3" height="3" />
		<rect x="3" y="18" width="3" height="3" />
		<rect x="6" y="18" width="3" height="3" />
		<rect x="9" y="18" width="3" height="3" />
		<rect x="12" y="18" width="3" height="3" />
		<rect x="15" y="18" width="3" height="3" />
		<rect x="18" y="18" width="3" height="3" />
		<rect x="24" y="18" width="3" height="3" />
		<rect x="30" y="18" width="3" height="3" />
		<rect x="36" y="18" width="3" height="3" />
		<rect x="42" y="18" width="3" height="3" />
		<rect x="48" y="18" width="3" height="3" />
		<rect x="54" y="18" width="3" height="3" />
		<rect x="60" y="18" width="3" height="3" />
		<rect x="66" y="18" width="3" height="3" />
		<rect x="72" y="18" width="3" height="3" />
		<rect x="78" y="18" width="3" height="3" />
		<rect x="81" y="18" width="3" height="3" />
		<rect x="84" y="18" width="3" height="3" />
		<rect x="87" y="18" width="3" height="3" />
		<rect x="90" y="18" width="3" height="3" />
		<rect x="93" y="18" width="3" height="3" />
		<rect x="96" y="18" width="3" height="3" />
		<rect x="24" y="21" width="3" height="3" />
		<rect x="30" y="21" width="3" height="3" />
		<rect x="33" y="21" width="3" height="3" />
		<rect x="39" y="21" width="3" height="3" />
		<rect x="45" y="21" width="3" height="3" />
		<rect x="48" y="21" width="3" height="3" />
		<rect x="66" y="21" width="3" height="3" />
		<rect x="69" y="21" width="3" height="3" />
		<rect x="0" y="24" width="3" height="3" />
		<rect x="3" y="24" width="3" height="3" />
		<rect x="9" y="24" width="3" height="3" />
		<rect x="12" y="24" width="3" height="3" />
		<rect x="18" y="24" width="3" height="3" />
		<rect x="27" y="24" width="3" height="3" />
		<rect x="30" y="24" width="3" height="3" />
		<rect x="33" y="24" width="3" height="3" />
		<rect x="39" y="24" width="3" height="3" />
		<rect x="51" y="24" width="3" height="3" />
		<rect x="54" y="24" width="3" height="3" />
		<rect x="69" y="24" width="3" height="3" />
		<rect x="72" y="24" width="3" height="3" />
		<rect x="78" y="24" width="3" height="3" />
		<rect x="96" y="24" width="3" height="3" />
		<rect x="9" y="27" width="3" height="3" />
		<rect x="15" y="27" width="3" height="3" />
		<rect x="24" y="27" width="3" height="3" />
		<rect x="27" y="27" width="3" height="3" />
		<rect x="36" y="27" width="3" height="3" />
		<rect x="39" y="27" width="3" height="3" />
		<rect x="48" y="27" width="3" height="3" />
		<rect x="51" y="27" width="3" height="3" />
		<rect x="54" y="27" width="3" height="3" />
		<rect x="63" y="27" width="3" height="3" />
		<rect x="66" y="27" width="3" height="3" />
		<rect x="69" y="27" width="3" height="3" />
		<rect x="81" y="27" width="3" height="3" />
		<rect x="84" y="27" width="3" height="3" />
		<rect x="90" y="27" width="3" height="3" />
		<rect x="93" y="27" width="3" height="3" />
		<rect x="0" y="30" width="3" height="3" />
		<rect x="3" y="30" width="3" height="3" />
		<rect x="15" y="30" width="3" height="3" />
		<rect x="18" y="30" width="3" height="3" />
		<rect x="21" y="30" width="3" height="3" />
		<rect x="24" y="30" width="3" height="3" />
		<rect x="30" y="30" width="3" height="3" />
		<rect x="33" y="30" width="3" height="3" />
		<rect x="39" y="30" width="3" height="3" />
		<rect x="45" y="30" width="3" height="3" />
		<rect x="48" y="30" width="3" height="3" />
		<rect x="51" y="30" width="3" height="3" />
		<rect x="63" y="30" width="3" height="3" />
		<rect x="69" y="30" width="3" height="3" />
		<rect x="72" y="30" width="3" height="3" />
		<rect x="81" y="30" width="3" height="3" />
		<rect x="84" y="30" width="3" height="3" />
		<rect x="93" y="30" width="3" height="3" />
		<rect x="96" y="30" width="3" height="3" />
		<rect x="6" y="33" width="3" height="3" />
		<rect x="9" y="33" width="3" height="3" />
		<rect x="12" y="33" width="3" height="3" />
		<rect x="15" y="33" width="3" height="3" />
		<rect x="21" y="33" width="3" height="3" />
		<rect x="24" y="33" width="3" height="3" />
		<rect x="27" y="33" width="3" height="3" />
		<rect x="30" y="33" width="3" height="3" />
		<rect x="33" y="33" width="3" height="3" />
		<rect x="36" y="33" width="3" height="3" />
		<rect x="39" y="33" width="3" height="3" />
		<rect x="48" y="33" width="3" height="3" />
		<rect x="51" y="33" width="3" height="3" />
		<rect x="60" y="33" width="3" height="3" />
		<rect x="69" y="33" width="3" height="3" />
		<rect x="75" y="33" width="3" height="3" />
		<rect x="84" y="33" width="3" height="3" />
		<rect x="87" y="33" width="3" height="3" />
		<rect x="90" y="33" width="3" height="3" />
		<rect x="0" y="36" width="3" height="3" />
		<rect x="6" y="36" width="3" height="3" />
		<rect x="9" y="36" width="3" height="3" />
		<rect x="15" y="36" width="3" height="3" />
		<rect x="18" y="36" width="3" height="3" />
		<rect x="27" y="36" width="3" height="3" />
		<rect x="33" y="36" width="3" height="3" />
		<rect x="36" y="36" width="3" height="3" />
		<rect x="39" y="36" width="3" height="3" />
		<rect x="45" y="36" width="3" height="3" />
		<rect x="48" y="36" width="3" height="3" />
		<rect x="60" y="36" width="3" height="3" />
		<rect x="69" y="36" width="3" height="3" />
		<rect x="72" y="36" width="3" height="3" />
		<rect x="78" y="36" width="3" height="3" />
		<rect x="93" y="36" width="3" height="3" />
		<rect x="96" y="36" width="3" height="3" />
		<rect x="3" y="39" width="3" height="3" />
		<rect x="15" y="39" width="3" height="3" />
		<rect x="21" y="39" width="3" height="3" />
		<rect x="39" y="39" width="3" height="3" />
		<rect x="42" y="39" width="3" height="3" />
		<rect x="48" y="39" width="3" height="3" />
		<rect x="51" y="39" width="3" height="3" />
		<rect x="54" y="39" width="3" height="3" />
		<rect x="60" y="39" width="3" height="3" />
		<rect x="69" y="39" width="3" height="3" />
		<rect x="75" y="39" width="3" height="3" />
		<rect x="81" y="39" width="3" height="3" />
		<rect x="12" y="42" width="3" height="3" />
		<rect x="15" y="42" width="3" height="3" />
		<rect x="18" y="42" width="3" height="3" />
		<rect x="27" y="42" width="3" height="3" />
		<rect x="33" y="42" width="3" height="3" />
		<rect x="36" y="42" width="3" height="3" />
		<rect x="39" y="42" width="3" height="3" />
		<rect x="48" y="42" width="3" height="3" />
		<rect x="51" y="42" width="3" height="3" />
		<rect x="54" y="42" width="3" height="3" />
		<rect x="57" y="42" width="3" height="3" />
		<rect x="63" y="42" width="3" height="3" />
		<rect x="66" y="42" width="3" height="3" />
		<rect x="72" y="42" width="3" height="3" />
		<rect x="78" y="42" width="3" height="3" />
		<rect x="84" y="42" width="3" height="3" />
		<rect x="3" y="45" width="3" height="3" />
		<rect x="21" y="45" width="3" height="3" />
		<rect x="24" y="45" width="3" height="3" />
		<rect x="33" y="45" width="3" height="3" />
		<rect x="45" y="45" width="3" height="3" />
		<rect x="60" y="45" width="3" height="3" />
		<rect x="69" y="45" width="3" height="3" />
		<rect x="84" y="45" width="3" height="3" />
		<rect x="90" y="45" width="3" height="3" />
		<rect x="96" y="45" width="3" height="3" />
		<rect x="0" y="48" width="3" height="3" />
		<rect x="3" y="48" width="3" height="3" />
		<rect x="6" y="48" width="3" height="3" />
		<rect x="9" y="48" width="3" height="3" />
		<rect x="12" y="48" width="3" height="3" />
		<rect x="18" y="48" width="3" height="3" />
		<rect x="21" y="48" width="3" height="3" />
		<rect x="27" y="48" width="3" height="3" />
		<rect x="42" y="48" width="3" height="3" />
		<rect x="51" y="48" width="3" height="3" />
		<rect x="57" y="48" width="3" height="3" />
		<rect x="72" y="48" width="3" height="3" />
		<rect x="75" y="48" width="3" height="3" />
		<rect x="78" y="48" width="3" height="3" />
		<rect x="81" y="48" width="3" height="3" />
		<rect x="84" y="48" width="3" height="3" />
		<rect x="87" y="48" width="3" height="3" />
		<rect x="93" y="48" width="3" height="3" />
		<rect x="96" y="48" width="3" height="3" />
		<rect x="3" y="51" width="3" height="3" />
		<rect x="6" y="51" width="3" height="3" />
		<rect x="12" y="51" width="3" height="3" />
		<rect x="21" y="51" width="3" height="3" />
		<rect x="24" y="51" width="3" height="3" />
		<rect x="27" y="51" width="3" height="3" />
		<rect x="30" y="51" width="3" height="3" />
		<rect x="33" y="51" width="3" height="3" />
		<rect x="36" y="51" width="3" height="3" />
		<rect x="39" y="51" width="3" height="3" />
		<rect x="42" y="51" width="3" height="3" />
		<rect x="48" y="51" width="3" height="3" />
		<rect x="51" y="51" width="3" height="3" />
		<rect x="54" y="51" width="3" height="3" />
		<rect x="57" y="51" width="3" height="3" />
		<rect x="63" y="51" width="3" height="3" />
		<rect x="66" y="51" width="3" height="3" />
		<rect x="78" y="51" width="3" height="3" />
		<rect x="81" y="51" width="3" height="3" />
		<rect x="84" y="51" width="3" height="3" />
		<rect x="93" y="51" width="3" height="3" />
		<rect x="96" y="51" width="3" height="3" />
		<rect x="9" y="54" width="3" height="3" />
		<rect x="12" y="54" width="3" height="3" />
		<rect x="18" y="54" width="3" height="3" />
		<rect x="30" y="54" width="3" height="3" />
		<rect x="33" y="54" width="3" height="3" />
		<rect x="45" y="54" width="3" height="3" />
		<rect x="57" y="54" width="3" height="3" />
		<rect x="60" y="54" width="3" height="3" />
		<rect x="69" y="54" width="3" height="3" />
		<rect x="78" y="54" width="3" height="3" />
		<rect x="81" y="54" width="3" height="3" />
		<rect x="84" y="54" width="3" height="3" />
		<rect x="96" y="54" width="3" height="3" />
		<rect x="0" y="57" width="3" height="3" />
		<rect x="6" y="57" width="3" height="3" />
		<rect x="9" y="57" width="3" height="3" />
		<rect x="12" y="57" width="3" height="3" />
		<rect x="15" y="57" width="3" height="3" />
		<rect x="24" y="57" width="3" height="3" />
		<rect x="36" y="57" width="3" height="3" />
		<rect x="42" y="57" width="3" height="3" />
		<rect x="54" y="57" width="3" height="3" />
		<rect x="57" y="57" width="3" height="3" />
		<rect x="72" y="57" width="3" height="3" />
		<rect x="81" y="57" width="3" height="3" />
		<rect x="84" y="57" width="3" height="3" />
		<rect x="90" y="57" width="3" height="3" />
		<rect x="93" y="57" width="3" height="3" />
		<rect x="96" y="57" width="3" height="3" />
		<rect x="6" y="60" width="3" height="3" />
		<rect x="18" y="60" width="3" height="3" />
		<rect x="21" y="60" width="3" height="3" />
		<rect x="27" y="60" width="3" height="3" />
		<rect x="36" y="60" width="3" height="3" />
		<rect x="39" y="60" width="3" height="3" />
		<rect x="42" y="60" width="3" height="3" />
		<rect x="51" y="60" width="3" height="3" />
		<rect x="57" y="60" width="3" height="3" />
		<rect x="69" y="60" width="3" height="3" />
		<rect x="72" y="60" width="3" height="3" />
		<rect x="75" y="60" width="3" height="3" />
		<rect x="81" y="60" width="3" height="3" />
		<rect x="0" y="63" width="3" height="3" />
		<rect x="3" y="63" width="3" height="3" />
		<rect x="6" y="63" width="3" height="3" />
		<rect x="9" y="63" width="3" height="3" />
		<rect x="15" y="63" width="3" height="3" />
		<rect x="21" y="63" width="3" height="3" />
		<rect x="30" y="63" width="3" height="3" />
		<rect x="42" y="63" width="3" height="3" />
		<rect x="45" y="63" width="3" height="3" />
		<rect x="63" y="63" width="3" height="3" />
		<rect x="66" y="63" width="3" height="3" />
		<rect x="69" y="63" width="3" height="3" />
		<rect x="81" y="63" width="3" height="3" />
		<rect x="84" y="63" width="3" height="3" />
		<rect x="87" y="63" width="3" height="3" />
		<rect x="93" y="63" width="3" height="3" />
		<rect x="0" y="66" width="3" height="3" />
		<rect x="6" y="66" width="3" height="3" />
		<rect x="15" y="66" width="3" height="3" />
		<rect x="18" y="66" width="3" height="3" />
		<rect x="21" y="66" width="3" height="3" />
		<rect x="24" y="66" width="3" height="3" />
		<rect x="36" y="66" width="3" height="3" />
		<rect x="42" y="66" width="3" height="3" />
		<rect x="45" y="66" width="3" height="3" />
		<rect x="60" y="66" width="3" height="3" />
		<rect x="66" y="66" width="3" height="3" />
		<rect x="69" y="66" width="3" height="3" />
		<rect x="72" y="66" width="3" height="3" />
		<rect x="75" y="66" width="3" height="3" />
		<rect x="84" y="66" width="3" height="3" />
		<rect x="93" y="66" width="3" height="3" />
		<rect x="96" y="66" width="3" height="3" />
		<rect x="0" y="69" width="3" height="3" />
		<rect x="6" y="69" width="3" height="3" />
		<rect x="9" y="69" width="3" height="3" />
		<rect x="21" y="69" width="3" height="3" />
		<rect x="24" y="69" width="3" height="3" />
		<rect x="27" y="69" width="3" height="3" />
		<rect x="42" y="69" width="3" height="3" />
		<rect x="45" y="69" width="3" height="3" />
		<rect x="51" y="69" width="3" height="3" />
		<rect x="54" y="69" width="3" height="3" />
		<rect x="69" y="69" width="3" height="3" />
		<rect x="78" y="69" width="3" height="3" />
		<rect x="90" y="69" width="3" height="3" />
		<rect x="0" y="72" width="3" height="3" />
		<rect x="3" y="72" width="3" height="3" />
		<rect x="12" y="72" width="3" height="3" />
		<rect x="15" y="72" width="3" height="3" />
		<rect x="18" y="72" width="3" height="3" />
		<rect x="27" y="72" width="3" height="3" />
		<rect x="30" y="72" width="3" height="3" />
		<rect x="39" y="72" width="3" height="3" />
		<rect x="42" y="72" width="3" height="3" />
		<rect x="45" y="72" width="3" height="3" />
		<rect x="51" y="72" width="3" height="3" />
		<rect x="60" y="72" width="3" height="3" />
		<rect x="69" y="72" width="3" height="3" />
		<rect x="72" y="72" width="3" height="3" />
		<rect x="75" y="72" width="3" height="3" />
		<rect x="78" y="72" width="3" height="3" />
		<rect x="81" y="72" width="3" height="3" />
		<rect x="84" y="72" width="3" height="3" />
		<rect x="93" y="72" width="3" height="3" />
		<rect x="24" y="75" width="3" height="3" />
		<rect x="30" y="75" width="3" height="3" />
		<rect x="36" y="75" width="3" height="3" />
		<rect x="45" y="75" width="3" height="3" />
		<rect x="48" y="75" width="3" height="3" />
		<rect x="57" y="75" width="3" height="3" />
		<rect x="66" y="75" width="3" height="3" />
		<rect x="69" y="75" width="3" height="3" />
		<rect x="72" y="75" width="3" height="3" />
		<rect x="84" y="75" width="3" height="3" />
		<rect x="90" y="75" width="3" height="3" />
		<rect x="93" y="75" width="3" height="3" />
		<rect x="0" y="78" width="3" height="3" />
		<rect x="3" y="78" width="3" height="3" />
		<rect x="6" y="78" width="3" height="3" />
		<rect x="9" y="78" width="3" height="3" />
		<rect x="12" y="78" width="3" height="3" />
		<rect x="15" y="78" width="3" height="3" />
		<rect x="18" y="78" width="3" height="3" />
		<rect x="27" y="78" width="3" height="3" />
		<rect x="30" y="78" width="3" height="3" />
		<rect x="42" y="78" width="3" height="3" />
		<rect x="45" y="78" width="3" height="3" />
		<rect x="54" y="78" width="3" height="3" />
		<rect x="57" y="78" width="3" height="3" />
		<rect x="60" y="78" width="3" height="3" />
		<rect x="66" y="78" width="3" height="3" />
		<rect x="69" y="78" width="3" height="3" />
		<rect x="72" y="78" width="3" height="3" />
		<rect x="78" y="78" width="3" height="3" />
		<rect x="84" y="78" width="3" height="3" />
		<rect x="90" y="78" width="3" height="3" />
		<rect x="0" y="81" width="3" height="3" />
		<rect x="18" y="81" width="3" height="3" />
		<rect x="30" y="81" width="3" height="3" />
		<rect x="36" y="81" width="3" height="3" />
		<rect x="39" y="81" width="3" height="3" />
		<rect x="42" y="81" width="3" height="3" />
		<rect x="54" y="81" width="3" height="3" />
		<rect x="60" y="81" width="3" height="3" />
		<rect x="66" y="81" width="3" height="3" />
		<rect x="69" y="81" width="3" height="3" />
		<rect x="72" y="81" width="3" height="3" />
		<rect x="84" y="81" width="3" height="3" />
		<rect x="87" y="81" width="3" height="3" />
		<rect x="90" y="81" width="3" height="3" />
		<rect x="93" y="81" width="3" height="3" />
		<rect x="0" y="84" width="3" height="3" />
		<rect x="6" y="84" width="3" height="3" />
		<rect x="9" y="84" width="3" height="3" />
		<rect x="12" y="84" width="3" height="3" />
		<rect x="18" y="84" width="3" height="3" />
		<rect x="24" y="84" width="3" height="3" />
		<rect x="33" y="84" width="3" height="3" />
		<rect x="36" y="84" width="3" height="3" />
		<rect x="45" y="84" width="3" height="3" />
		<rect x="48" y="84" width="3" height="3" />
		<rect x="54" y="84" width="3" height="3" />
		<rect x="60" y="84" width="3" height="3" />
		<rect x="66" y="84" width="3" height="3" />
		<rect x="69" y="84" width="3" height="3" />
		<rect x="72" y="84" width="3" height="3" />
		<rect x="75" y="84" width="3" height="3" />
		<rect x="78" y="84" width="3" height="3" />
		<rect x="81" y="84" width="3" height="3" />
		<rect x="84" y="84" width="3" height="3" />
		<rect x="87" y="84" width="3" height="3" />
		<rect x="93" y="84" width="3" height="3" />
		<rect x="96" y="84" width="3" height="3" />
		<rect x="0" y="87" width="3" height="3" />
		<rect x="6" y="87" width="3" height="3" />
		<rect x="9" y="87" width="3" height="3" />
		<rect x="12" y="87" width="3" height="3" />
		<rect x="18" y="87" width="3" height="3" />
		<rect x="24" y="87" width="3" height="3" />
		<rect x="27" y="87" width="3" height="3" />
		<rect x="30" y="87" width="3" height="3" />
		<rect x="33" y="87" width="3" height="3" />
		<rect x="45" y="87" width="3" height="3" />
		<rect x="48" y="87" width="3" height="3" />
		<rect x="54" y="87" width="3" height="3" />
		<rect x="60" y="87" width="3" height="3" />
		<rect x="66" y="87" width="3" height="3" />
		<rect x="75" y="87" width="3" height="3" />
		<rect x="87" y="87" width="3" height="3" />
		<rect x="90" y="87" width="3" height="3" />
		<rect x="93" y="87" width="3" height="3" />
		<rect x="96" y="87" width="3" height="3" />
		<rect x="0" y="90" width="3" height="3" />
		<rect x="6" y="90" width="3" height="3" />
		<rect x="9" y="90" width="3" height="3" />
		<rect x="12" y="90" width="3" height="3" />
		<rect x="18" y="90" width="3" height="3" />
		<rect x="27" y="90" width="3" height="3" />
		<rect x="36" y="90" width="3" height="3" />
		<rect x="39" y="90" width="3" height="3" />
		<rect x="42" y="90" width="3" height="3" />
		<rect x="45" y="90" width="3" height="3" />
		<rect x="48" y="90" width="3" height="3" />
		<rect x="51" y="90" width="3" height="3" />
		<rect x="57" y="90" width="3" height="3" />
		<rect x="69" y="90" width="3" height="3" />
		<rect x="75" y="90" width="3" height="3" />
		<rect x="84" y="90" width="3" height="3" />
		<rect x="90" y="90" width="3" height="3" />
		<rect x="93" y="90" width="3" height="3" />
		<rect x="96" y="90" width="3" height="3" />
		<rect x="0" y="93" width="3" height="3" />
		<rect x="18" y="93" width="3" height="3" />
		<rect x="24" y="93" width="3" height="3" />
		<rect x="30" y="93" width="3" height="3" />
		<rect x="33" y="93" width="3" height="3" />
		<rect x="39" y="93" width="3" height="3" />
		<rect x="48" y="93" width="3" height="3" />
		<rect x="66" y="93" width="3" height="3" />
		<rect x="78" y="93" width="3" height="3" />
		<rect x="84" y="93" width="3" height="3" />
		<rect x="87" y="93" width="3" height="3" />
		<rect x="90" y="93" width="3" height="3" />
		<rect x="93" y="93" width="3" height="3" />
		<rect x="96" y="93" width="3" height="3" />
		<rect x="0" y="96" width="3" height="3" />
		<rect x="3" y="96" width="3" height="3" />
		<rect x="6" y="96" width="3" height="3" />
		<rect x="9" y="96" width="3" height="3" />
		<rect x="12" y="96" width="3" height="3" />
		<rect x="15" y="96" width="3" height="3" />
		<rect x="18" y="96" width="3" height="3" />
		<rect x="24" y="96" width="3" height="3" />
		<rect x="30" y="96" width="3" height="3" />
		<rect x="33" y="96" width="3" height="3" />
		<rect x="39" y="96" width="3" height="3" />
		<rect x="48" y="96" width="3" height="3" />
		<rect x="66" y="96" width="3" height="3" />
		<rect x="69" y="96" width="3" height="3" />
		<rect x="72" y="96" width="3" height="3" />
		<rect x="75" y="96" width="3" height="3" />
		<rect x="81" y="96" width="3" height="3" />
		<rect x="84" y="96" width="3" height="3" />
		<rect x="87" y="96" width="3" height="3" />
	</g>
</svg>
