<?xml version="1.0" standalone="no"?>
<!DOCTYPE svg PUBLIC "-//W3C//DTD SVG 1.1//EN" "http://www.w3.org/Graphics/SVG/1.1/DTD/svg11.dtd">
<svg width="87" height="87" version="1.1" xmlns="http://www.w3.org/2000/svg">
	<g id="elements" fill="black" stroke="none">
		<rect x="0" y="0" width="3" height="3" />
		<rect x="3" y="0" width="3" height="3" />
		<rect x="6" y="0" width="3" height="3" />
		<rect x="9" y="0" width="3" height="3" />
		<rect x="12" y="0" width="3" height="3" />
		<rect x="15" y="0" width="3" height="3" />
		<rect x="18" y="0" width="3" height="3" />
		<rect x="27" y="0" width="3" height="3" />
		<rect x="36" y="0" width="3" height="3" />
		<rect x="42" y="0" width="3" height="3" />
		<rect x="51" y="0" width="3" height="3" />
		<rect x="54" y="0" width="3" height="3" />
		<rect x="57" y="0" width="3" height="3" />
		<rect x="60" y="0" width="3" height="3" />
		<rect x="66" y="0" width="3" height="3" />
		<rect x="69" y="0" width="3" height="3" />
		<rect x="72" y="0" width="3" height="3" />
		<rect x="75" y="0" width="3" height="3" />
		<rect x="78" y="0" width="3" height="3" />
		<rect x="81" y="0" width="3" height="3" />
		<rect x="84" y="0" width="3" height="3" />
		<rect x="0" y="3" width="3" height="3" />
		<rect x="18" y="3" width="3" height="3" />
		<rect x="24" y="3" width="3" height="3" />
		<rect x="33" y="3" width="3" height="3" />
		<rect x="36" y="3" width="3" height="3" />
		<rect x="39" y="3" width="3" height="3" />
		<rect x="42" y="3" width="3" height="3" />
		<rect x="45" y="3" width="3" height="3" />
		<rect x="48" y="3" width="3" height="3" />
		<rect x="54" y="3" width="3" height="3" />
		<rect x="66" y="3" width="3" height="3" />
		<rect x="84" y="3" width="3" height="3" />
		<rect x="0" y="6" width="3" height="3" />
		<rect x="6" y="6" width="3" height="3" />
		<rect x="9" y="6" width="3" height="3" />
		<rect x="12" y="6" width="3" height="3" />
		<rect x="18" y="6" width="3" height="3" />
		<rect x="24" y="6" width="3" height="3" />
		<rect x="27" y="6" width="3" height="3" />
		<rect x="30" y="6" width="3" height="3" />
		<rect x="33" y="6" width="3" height="3" />
		<rect x="36" y="6" width="3" height="3" />
		<rect x="45" y="6" width="3" height="3" />
		<rect x="48" y="6" width="3" height="3" />
		<rect x="51" y="6" width="3" height="3" />
		<rect x="60" y="6" width="3" height="3" />
		<rect x="66" y="6" width="3" height="3" />
		<rect x="72" y="6" width="3" height="3" />
		<rect x="75" y="6" width="3" height="3" />
		<rect x="78" y="6" width="3" height="3" />
		<rect x="84" y="6" width="3" height="3" />
		<rect x="0" y="9" width="3" height="3" />
		<rect x="6" y="9" width="3" height="3" />
		<rect x="9" y="9" width="3" height="3" />
		<rect x="12" y="9" width="3" height="3" />
		<rect x="18" y="9" width="3" height="3" />
		<rect x="27" y="9" width="3" height="3" />
		<rect x="30" y="9" width="3" height="3" />
		<rect x="33" y="9" width="3" height="3" />
		<rect x="45" y="9" width="3" height="3" />
		<rect x="48" y="9" width="3" height="3" />
		<rect x="54" y="9" width="3" height="3" />
		<rect x="57" y="9" width="3" height="3" />
		<rect x="60" y="9" width="3" height="3" />
		<rect x="66" y="9" width="3" height="3" />
		<rect x="72" y="9" width="3" height="3" />
		<rect x="75" y="9" width="3" height="3" />
		<rect x="78" y="9" width="3" height="3" />
		<rect x="84" y="9" width="3" height="3" />
		<rect x="0" y="12" width="3" height="3" />
		<rect x="6" y="12" width="3" height="3" />
		<rect x="9" y="12" width="3" height="3" />
		<rect x="12" y="12" width="3" height="3" />
		<rect x="18" y="12" width="3" height="3" />
		<rect x="24" y="12" width="3" height="3" />
		<rect x="42" y="12" width="3" height="3" />
		<rect x="45" y="12" width="3" height="3" />
		<rect x="66" y="12" width="3" height="3" />
		<rect x="72" y="12" width="3" height="3" />
		<rect x="75" y="12" width="3" height="3" />
		<rect x="78" y="12" width="3" height="3" />
		<rect x="84" y="12" width="3" height="3" />
		<rect x="0" y="15" width="3" height="3" />
		<rect x="18" y="15" width="3" height="3" />
		<rect x="24" y="15" width="3" height="3" />
		<rect x="27" y="15" width="3" height="3" />
		<rect x="33" y="15" width="3" height="3" />
		<rect x="39" y="15" width="3" height="3" />
		<rect x="45" y="15" width="3" height="3" />
		<rect x="48" y="15" width="3" height="3" />
		<rect x="57" y="15" width="3" height="3" />
		<rect x="66" y="15" width="3" height="3" />
		<rect x="84" y="15" width="3" height="3" />
		<rect x="0" y="18" width="3" height="3" />
		<rect x="3" y="18" width="3" height="3" />
		<rect x="6" y="18" width="3" height="3" />
		<rect x="9" y="18" width="3" height="3" />
		<rect x="12" y="18" width="3" height="3" />
		<rect x="15" y="18" width="3" height="3" />
		<rect x="18" y="18" width="3" height="3" />
		<rect x="24" y="18" width="3" height="3" />
		<rect x="30" y="18" width="3" height="3" />
		<rect x="36" y="18" width="3" height="3" />
		<rect x="42" y="18" width="3" height="3" />
		<rect x="48" y="18" width="3" height="3" />
		<rect x="54" y="18" width="3" height="3" />
		<rect x="60" y="18" width="3" height="3" />
		<rect x="66" y="18" width="3" height="3" />
		<rect x="69" y="18" width="3" height="3" />
		<rect x="72" y="18" width="3" height="3" />
		<rect x="75" y="18" width="3" height="3" />
		<rect x="78" y="18" width="3" height="3" />
		<rect x="81" y="18" width="3" height="3" />
		<rect x="84" y="18" width="3" height="3" />
		<rect x="24" y="21" width="3" height="3" />
		<rect x="27" y="21" width="3" height="3" />
		<rect x="36" y="21" width="3" height="3" />
		<rect x="42" y="21" width="3" height="3" />
		<rect x="45" y="21" width="3" height="3" />
		<rect x="48" y="21" width="3" height="3" />
		<rect x="51" y="21" width="3" height="3" />
		<rect x="54" y="21" width="3" height="3" />
		<rect x="57" y="21" width="3" height="3" />
		<rect x="0" y="24" width="3" height="3" />
		<rect x="3" y="24" width="3" height="3" />
		<rect x="9" y="24" width="3" height="3" />
		<rect x="18" y="24" width="3" height="3" />
		<rect x="21" y="24" width="3" height="3" />
		<rect x="30" y="24" width="3" height="3" />
		<rect x="39" y="24" width="3" height="3" />
		<rect x="42" y="24" width="3" height="3" />
		<rect x="51" y="24" width="3" height="3" />
		<rect x="60" y="24" width="3" height="3" />
		<rect x="66" y="24" width="3" height="3" />
		<rect x="69" y="24" width="3" height="3" />
		<rect x="72" y="24" width="3" height="3" />
		<rect x="78" y="24" width="3" height="3" />
		<rect x="81" y="24" width="3" height="3" />
		<rect x="0" y="27" width="3" height="3" />
		<rect x="3" y="27" width="3" height="3" />
		<rect x="12" y="27" width="3" height="3" />
		<rect x="15" y="27" width="3" height="3" />
		<rect x="24" y="27" width="3" height="3" />
		<rect x="30" y="27" width="3" height="3" />
		<rect x="33" y="27" width="3" height="3" />
		<rect x="42" y="27" width="3" height="3" />
		<rect x="45" y="27" width="3" height="3" />
		<rect x="48" y="27" width="3" height="3" />
		<rect x="54" y="27" width="3" height="3" />
		<rect x="60" y="27" width="3" height="3" />
		<rect x="63" y="27" width="3" height="3" />
		<rect x="66" y="27" width="3" height="3" />
		<rect x="75" y="27" width="3" height="3" />
		<rect x="84" y="27" width="3" height="3" />
		<rect x="0" y="30" width="3" height="3" />
		<rect x="18" y="30" width="3" height="3" />
		<rect x="21" y="30" width="3" height="3" />
		<rect x="24" y="30" width="3" height="3" />
		<rect x="27" y="30" width="3" height="3" />
		<rect x="30" y="30" width="3" height="3" />
		<rect x="42" y="30" width="3" height="3" />
		<rect x="48" y="30" width="3" height="3" />
		<rect x="54" y="30" width="3" height="3" />
		<rect x="57" y="30" width="3" height="3" />
		<rect x="72" y="30" width="3" height="3" />
		<rect x="75" y="30" width="3" height="3" />
		<rect x="78" y="30" width="3" height="3" />
		<rect x="81" y="30" width="3" height="3" />
		<rect x="12" y="33" width="3" height="3" />
		<rect x="21" y="33" width="3" height="3" />
		<rect x="39" y="33" width="3" height="3" />
		<rect x="42" y="33" width="3" height="3" />
		<rect x="48" y="33" width="3" height="3" />
		<rect x="54" y="33" width="3" height="3" />
		<rect x="57" y="33" width="3" height="3" />
		<rect x="69" y="33" width="3" height="3" />
		<rect x="72" y="33" width="3" height="3" />
		<rect x="75" y="33" width="3" height="3" />
		<rect x="78" y="33" width="3" height="3" />
		<rect x="81" y="33" width="3" height="3" />
		<rect x="18" y="36" width="3" height="3" />
		<rect x="36" y="36" width="3" height="3" />
		<rect x="60" y="36" width="3" height="3" />
		<rect x="63" y="36" width="3" height="3" />
		<rect x="66" y="36" width="3" height="3" />
		<rect x="75" y="36" width="3" height="3" />
		<rect x="81" y="36" width="3" height="3" />
		<rect x="84" y="36" width="3" height="3" />
		<rect x="21" y="39" width="3" height="3" />
		<rect x="24" y="39" width="3" height="3" />
		<rect x="27" y="39" width="3" height="3" />
		<rect x="30" y="39" width="3" height="3" />
		<rect x="33" y="39" width="3" height="3" />
		<rect x="36" y="39" width="3" height="3" />
		<rect x="42" y="39" width="3" height="3" />
		<rect x="51" y="39" width="3" height="3" />
		<rect x="54" y="39" width="3" height="3" />
		<rect x="57" y="39" width="3" height="3" />
		<rect x="60" y="39" width="3" height="3" />
		<rect x="78" y="39" width="3" height="3" />
		<rect x="6" y="42" width="3" height="3" />
		<rect x="9" y="42" width="3" height="3" />
		<rect x="15" y="42" width="3" height="3" />
		<rect x="18" y="42" width="3" height="3" />
		<rect x="21" y="42" width="3" height="3" />
		<rect x="24" y="42" width="3" height="3" />
		<rect x="27" y="42" width="3" height="3" />
		<rect x="36" y="42" width="3" height="3" />
		<rect x="39" y="42" width="3" height="3" />
		<rect x="42" y="42" width="3" height="3" />
		<rect x="66" y="42" width="3" height="3" />
		<rect x="78" y="42" width="3" height="3" />
		<rect x="81" y="42" width="3" height="3" />
		<rect x="84" y="42" width="3" height="3" />
		<rect x="0" y="45" width="3" height="3" />
		<rect x="9" y="45" width="3" height="3" />
		<rect x="21" y="45" width="3" height="3" />
		<rect x="27" y="45" width="3" height="3" />
		<rect x="30" y="45" width="3" height="3" />
		<rect x="36" y="45" width="3" height="3" />
		<rect x="39" y="45" width="3" height="3" />
		<rect x="45" y="45" width="3" height="3" />
		<rect x="48" y="45" width="3" height="3" />
		<rect x="51" y="45" width="3" height="3" />
		<rect x="57" y="45" width="3" height="3" />
		<rect x="60" y="45" width="3" height="3" />
		<rect x="63" y="45" width="3" height="3" />
		<rect x="66" y="45" width="3" height="3" />
		<rect x="69" y="45" width="3" height="3" />
		<rect x="72" y="45" width="3" height="3" />
		<rect x="75" y="45" width="3" height="3" />
		<rect x="81" y="45" width="3" height="3" />
		<rect x="3" y="48" width="3" height="3" />
		<rect x="6" y="48" width="3" height="3" />
		<rect x="15" y="48" width="3" height="3" />
		<rect x="18" y="48" width="3" height="3" />
		<rect x="27" y="48" width="3" height="3" />
		<rect x="33" y="48" width="3" height="3" />
		<rect x="45" y="48" width="3" height="3" />
		<rect x="51" y="48" width="3" height="3" />
		<rect x="57" y="48" width="3" height="3" />
		<rect x="63" y="48" width="3" height="3" />
		<rect x="75" y="48" width="3" height="3" />
		<rect x="81" y="48" width="3" height="3" />
		<rect x="3" y="51" width="3" height="3" />
		<rect x="9" y="51" width="3" height="3" />
		<rect x="27" y="51" width="3" height="3" />
		<rect x="39" y="51" width="3" height="3" />
		<rect x="42" y="51" width="3" height="3" />
		<rect x="54" y="51" width="3" height="3" />
		<rect x="63" y="51" width="3" height="3" />
		<rect x="66" y="51" width="3" height="3" />
		<rect x="69" y="51" width="3" height="3" />
		<rect x="84" y="51" width="3" height="3" />
		<rect x="0" y="54" width="3" height="3" />
		<rect x="12" y="54" width="3" height="3" />
		<rect x="18" y="54" width="3" height="3" />
		<rect x="21" y="54" width="3" height="3" />
		<rect x="24" y="54" width="3" height="3" />
		<rect x="27" y="54" width="3" height="3" />
		<rect x="39" y="54" width="3" height="3" />
		<rect x="42" y="54" width="3" height="3" />
		<rect x="54" y="54" width="3" height="3" />
		<rect x="60" y="54" width="3" height="3" />
		<rect x="75" y="54" width="3" height="3" />
		<rect x="81" y="54" width="3" height="3" />
		<rect x="84" y="54" width="3" height="3" />
		<rect x="6" y="57" width="3" height="3" />
		<rect x="15" y="57" width="3" height="3" />
		<rect x="21" y="57" width="3" height="3" />
		<rect x="27" y="57" width="3" height="3" />
		<rect x="33" y="57" width="3" height="3" />
		<rect x="42" y="57" width="3" height="3" />
		<rect x="45" y="57" width="3" height="3" />
		<rect x="51" y="57" width="3" height="3" />
		<rect x="57" y="57" width="3" height="3" />
		<rect x="60" y="57" width="3" height="3" />
		<rect x="66" y="57" width="3" height="3" />
		<rect x="69" y="57" width="3" height="3" />
		<rect x="81" y="57" width="3" height="3" />
		<rect x="84" y="57" width="3" height="3" />
		<rect x="0" y="60" width="3" height="3" />
		<rect x="6" y="60" width="3" height="3" />
		<rect x="12" y="60" width="3" height="3" />
		<rect x="18" y="60" width="3" height="3" />
		<rect x="27" y="60" width="3" height="3" />
		<rect x="33" y="60" width="3" height="3" />
		<rect x="36" y="60" width="3" height="3" />
		<rect x="39" y="60" width="3" height="3" />
		<rect x="54" y="60" width="3" height="3" />
		<rect x="57" y="60" width="3" height="3" />
		<rect x="60" y="60" width="3" height="3" />
		<rect x="63" y="60" width="3" height="3" />
		<rect x="66" y="60" width="3" height="3" />
		<rect x="69" y="60" width="3" height="3" />
		<rect x="72" y="60" width="3" height="3" />
		<rect x="78" y="60" width="3" height="3" />
		<rect x="24" y="63" width="3" height="3" />
		<rect x="33" y="63" width="3" height="3" />
		<rect x="36" y="63" width="3" height="3" />
		<rect x="39" y="63" width="3" height="3" />
		<rect x="42" y="63" width="3" height="3" />
		<rect x="57" y="63" width="3" height="3" />
		<rect x="60" y="63" width="3" height="3" />
		<rect x="72" y="63" width="3" height="3" />
		<rect x="78" y="63" width="3" height="3" />
		<rect x="81" y="63" width="3" height="3" />
		<rect x="84" y="63" width="3" height="3" />
		<rect x="0" y="66" width="3" height="3" />
		<rect x="3" y="66" width="3" height="3" />
		<rect x="6" y="66" width="3" height="3" />
		<rect x="9" y="66" width="3" height="3" />
		<rect x="12" y="66" width="3" height="3" />
		<rect x="15" y="66" width="3" height="3" />
		<rect x="18" y="66" width="3" height="3" />
		<rect x="24" y="66" width="3" height="3" />
		<rect x="27" y="66" width="3" height="3" />
		<rect x="30" y="66" width="3" height="3" />
		<rect x="33" y="66" width="3" height="3" />
		<rect x="36" y="66" width="3" height="3" />
		<rect x="39" y="66" width="3" height="3" />
		<rect x="60" y="66" width="3" height="3" />
		<rect x="66" y="66" width="3" height="3" />
		<rect x="72" y="66" width="3" height="3" />
		<rect x="81" y="66" width="3" height="3" />
		<rect x="0" y="69" width="3" height="3" />
		<rect x="18" y="69" width="3" height="3" />
		<rect x="27" y="69" width="3" height="3" />
		<rect x="33" y="69" width="3" height="3" />
		<rect x="36" y="69" width="3" height="3" />
		<rect x="39" y="69" width="3" height="3" />
		<rect x="42" y="69" width="3" height="3" />
		<rect x="54" y="69" width="3" height="3" />
		<rect x="57" y="69" width="3" height="3" />
		<rect x="60" y="69" width="3" height="3" />
		<rect x="72" y="69" width="3" height="3" />
		<rect x="78" y="69" width="3" height="3" />
		<rect x="81" y="69" width="3" height="3" />
		<rect x="84" y="69" width="3" height="3" />
		<rect x="0" y="72" width="3" height="3" />
		<rect x="6" y="72" width="3" height="3" />
		<rect x="9" y="72" width="3" height="3" />
		<rect x="12" y="72" width="3" height="3" />
		<rect x="18" y="72" width="3" height="3" />
		<rect x="27" y="72" width="3" height="3" />
		<rect x="30" y="72" width="3" height="3" />
		<rect x="33" y="72" width="3" height="3" />
		<rect x="42" y="72" width="3" height="3" />
		<rect x="45" y="72" width="3" height="3" />
		<rect x="48" y="72" width="3" height="3" />
		<rect x="60" y="72" width="3" height="3" />
		<rect x="63" y="72" width="3" height="3" />
		<rect x="66" y="72" width="3" height="3" />
		<rect x="69" y="72" width="3" height="3" />
		<rect x="72" y="72" width="3" height="3" />
		<rect x="75" y="72" width="3" height="3" />
		<rect x="0" y="75" width="3" height="3" />
		<rect x="6" y="75" width="3" height="3" />
		<rect x="9" y="75" width="3" height="3" />
		<rect x="12" y="75" width="3" height="3" />
		<rect x="18" y="75" width="3" height="3" />
		<rect x="24" y="75" width="3" height="3" />
		<rect x="30" y="75" width="3" height="3" />
		<rect x="33" y="75" width="3" height="3" />
		<rect x="39" y="75" width="3" height="3" />
		<rect x="57" y="75" width="3" height="3" />
		<rect x="60" y="75" width="3" height="3" />
		<rect x="66" y="75" width="3" height="3" />
		<rect x="72" y="75" width="3" height="3" />
		<rect x="81" y="75" width="3" height="3" />
		<rect x="0" y="78" width="3" height="3" />
		<rect x="6" y="78" width="3" height="3" />
		<rect x="9" y="78" width="3" height="3" />
		<rect x="12" y="78" width="3" height="3" />
		<rect x="18" y="78" width="3" height="3" />
		<rect x="27" y="78" width="3" height="3" />
		<rect x="33" y="78" width="3" height="3" />
		<rect x="39" y="78" width="3" height="3" />
		<rect x="42" y="78" width="3" height="3" />
		<rect x="54" y="78" width="3" height="3" />
		<rect x="57" y="78" width="3" height="3" />
		<rect x="72" y="78" width="3" height="3" />
		<rect x="84" y="78" width="3" height="3" />
		<rect x="0" y="81" width="3" height="3" />
		<rect x="18" y="81" width="3" height="3" />
		<rect x="24" y="81" width="3" height="3" />
		<rect x="27" y="81" width="3" height="3" />
		<rect x="30" y="81" width="3" height="3" />
		<rect x="33" y="81" width="3" height="3" />
		<rect x="45" y="81" width="3" height="3" />
		<rect x="51" y="81" width="3" height="3" />
		<rect x="54" y="81" width="3" height="3" />
		<rect x="57" y="81" width="3" height="3" />
		<rect x="60" y="81" width="3" height="3" />
		<rect x="66" y="81" width="3" height="3" />
		<rect x="81" y="81" width="3" height="3" />
		<rect x="0" y="84" width="3" height="3" />
		<rect x="3" y="84" width="3" height="3" />
		<rect x="6" y="84" width="3" height="3" />
		<rect x="9" y="84" width="3" height="3" />
		<rect x="12" y="84" width="3" height="3" />
		<rect x="15" y="84" width="3" height="3" />
		<rect x="18" y="84" width="3" height="3" />
		<rect x="24" y="84" width="3" height="3" />
		<rect x="27" y="84" width="3" height="3" />
		<rect x="30" y="84" width="3" height="3" />
		<rect x="36" y="84" width="3" height="3" />
		<rect x="39" y="84" width="3" height="3" />
		<rect x="48" y="84" width="3" height="3" />
		<rect x="51" y="84" width="3" height="3" />
		<rect x="60" y="84" width="3" height="3" />
		<rect x="66" y="84" width="3" height="3" />
		<rect x="72" y="84" width="3" height="3" />
		<rect x="75" y="84" width="3" height="3" />
		<rect x="81" y="84" width="3" height="3" />
	</g>
</svg>
